<svg xmlns="http://www.w3.org/2000/svg" xmlns:xlink="http://www.w3.org/1999/xlink" width="500" zoomAndPan="magnify" viewBox="0 0 375 374.999991" height="500" preserveAspectRatio="xMidYMid meet" version="1.2"><defs><clipPath id="67eae43fb0"><path d="M 75.96875 5.214844 L 298.992188 5.214844 L 298.992188 277 L 75.96875 277 Z M 75.96875 5.214844 "/></clipPath><clipPath id="09b97b9698"><path d="M 154.96875 291.636719 L 223.300781 291.636719 L 223.300781 369.851562 L 154.96875 369.851562 Z M 154.96875 291.636719 "/></clipPath><clipPath id="384c081391"><path d="M 160.96875 291.636719 L 217.300781 291.636719 C 218.894531 291.636719 220.421875 292.269531 221.546875 293.394531 C 222.671875 294.519531 223.300781 296.046875 223.300781 297.636719 L 223.300781 363.78125 C 223.300781 365.375 222.671875 366.902344 221.546875 368.027344 C 220.421875 369.152344 218.894531 369.78125 217.300781 369.78125 L 160.96875 369.78125 C 159.375 369.78125 157.847656 369.152344 156.722656 368.027344 C 155.597656 366.902344 154.96875 365.375 154.96875 363.78125 L 154.96875 297.636719 C 154.96875 296.046875 155.597656 294.519531 156.722656 293.394531 C 157.847656 292.269531 159.375 291.636719 160.96875 291.636719 Z M 160.96875 291.636719 "/></clipPath></defs><g id="07e2be9bbd"><g clip-rule="nonzero" clip-path="url(#67eae43fb0)"><path style=" stroke:none;fill-rule:nonzero;fill:#38b6ff;fill-opacity:1;" d="M 187.492188 5.214844 C 125.964844 5.214844 75.96875 55.261719 75.96875 116.761719 C 75.96875 120.390625 78.886719 123.308594 82.515625 123.308594 L 135.015625 123.308594 C 138.621094 123.308594 141.558594 120.390625 141.558594 116.761719 C 141.558594 91.433594 162.160156 70.828125 187.492188 70.828125 C 212.847656 70.828125 233.425781 91.433594 233.425781 116.761719 C 233.425781 135.066406 222.675781 146.734375 203.660156 165.773438 C 181.839844 187.589844 154.675781 214.734375 154.675781 261.148438 L 154.675781 270.3125 C 154.675781 273.941406 157.613281 276.878906 161.21875 276.878906 L 213.742188 276.878906 C 217.347656 276.878906 220.289062 273.964844 220.289062 270.3125 L 220.289062 261.148438 C 220.289062 242.800781 231.058594 231.175781 250.074219 212.160156 C 271.894531 190.324219 298.992188 163.152344 298.992188 116.785156 C 298.992188 55.261719 249.042969 5.214844 187.492188 5.214844 "/></g><g clip-rule="nonzero" clip-path="url(#09b97b9698)"><g clip-rule="nonzero" clip-path="url(#384c081391)"><path style=" stroke:none;fill-rule:nonzero;fill:#ff3131;fill-opacity:1;" d="M 154.96875 291.636719 L 223.300781 291.636719 L 223.300781 369.851562 L 154.96875 369.851562 Z M 154.96875 291.636719 "/></g></g></g></svg>